<svg width="527" height="108" viewBox="0 0 527 108" fill="none" xmlns="http://www.w3.org/2000/svg">
<path d="M58.2898 67.84C53.5298 67.84 49.3065 66.7667 45.6198 64.62C41.9332 62.4267 39.0398 59.44 36.9398 55.66C34.8398 51.8333 33.7898 47.4467 33.7898 42.5C33.7898 37.5533 34.8398 33.19 36.9398 29.41C39.0398 25.5833 41.9098 22.5967 45.5498 20.45C49.2365 18.2567 53.4598 17.16 58.2198 17.16C61.5798 17.16 64.7065 17.7667 67.5998 18.98C70.4932 20.1467 73.0132 21.8033 75.1598 23.95C77.3532 26.05 79.0332 28.4767 80.1998 31.23L71.3098 34.52C70.5165 32.7933 69.4665 31.3 68.1598 30.04C66.8532 28.7333 65.3598 27.73 63.6798 27.03C61.9998 26.2833 60.1798 25.91 58.2198 25.91C55.3732 25.91 52.8298 26.6333 50.5898 28.08C48.3965 29.48 46.6698 31.4167 45.4098 33.89C44.1965 36.3633 43.5898 39.2333 43.5898 42.5C43.5898 45.7667 44.2198 48.66 45.4798 51.18C46.7398 53.6533 48.4898 55.6133 50.7298 57.06C52.9698 58.46 55.5365 59.16 58.4298 59.16C60.4365 59.16 62.2565 58.7867 63.8898 58.04C65.5698 57.2467 67.0398 56.1733 68.2998 54.82C69.6065 53.4667 70.6565 51.9033 71.4498 50.13L80.3398 53.35C79.1732 56.1967 77.4932 58.7167 75.2998 60.91C73.1532 63.1033 70.6332 64.8067 67.7398 66.02C64.8465 67.2333 61.6965 67.84 58.2898 67.84ZM107.193 67L106.913 59.93V49.29C106.913 47.19 106.679 45.3933 106.213 43.9C105.793 42.4067 105.093 41.2633 104.113 40.47C103.179 39.63 101.896 39.21 100.263 39.21C98.7692 39.21 97.4158 39.5367 96.2025 40.19C94.9892 40.8433 93.9625 41.8467 93.1225 43.2L85.0025 40.4C85.6558 38.9067 86.6125 37.46 87.8725 36.06C89.1325 34.6133 90.7658 33.4467 92.7725 32.56C94.8258 31.6267 97.3225 31.16 100.263 31.16C103.809 31.16 106.749 31.8367 109.083 33.19C111.463 34.5433 113.213 36.4567 114.333 38.93C115.499 41.3567 116.059 44.25 116.013 47.61L115.803 67H107.193ZM97.3925 67.84C93.1925 67.84 89.9258 66.9067 87.5925 65.04C85.3058 63.1733 84.1625 60.5367 84.1625 57.13C84.1625 53.3967 85.3992 50.5967 87.8725 48.73C90.3925 46.8167 93.9158 45.86 98.4425 45.86H107.333V52.72H101.663C98.6292 52.72 96.5292 53.0933 95.3625 53.84C94.1958 54.54 93.6125 55.5433 93.6125 56.85C93.6125 57.8767 94.0792 58.6933 95.0125 59.3C95.9458 59.86 97.2525 60.14 98.9325 60.14C100.473 60.14 101.826 59.79 102.993 59.09C104.206 58.3433 105.163 57.41 105.863 56.29C106.563 55.1233 106.913 53.9333 106.913 52.72H109.153C109.153 57.48 108.243 61.19 106.423 63.85C104.649 66.51 101.639 67.84 97.3925 67.84ZM123.727 81V32H132.407L132.967 38.44V81H123.727ZM143.537 67.84C140.597 67.84 138.1 67.0933 136.047 65.6C134.04 64.1067 132.5 61.9833 131.427 59.23C130.353 56.4767 129.817 53.2333 129.817 49.5C129.817 45.72 130.353 42.4767 131.427 39.77C132.5 37.0167 134.04 34.8933 136.047 33.4C138.1 31.9067 140.597 31.16 143.537 31.16C146.757 31.16 149.533 31.9067 151.867 33.4C154.247 34.8933 156.09 37.0167 157.397 39.77C158.703 42.4767 159.357 45.72 159.357 49.5C159.357 53.2333 158.703 56.4767 157.397 59.23C156.09 61.9833 154.247 64.1067 151.867 65.6C149.533 67.0933 146.757 67.84 143.537 67.84ZM141.157 59.37C142.837 59.37 144.307 58.95 145.567 58.11C146.873 57.27 147.9 56.1033 148.647 54.61C149.393 53.1167 149.767 51.4133 149.767 49.5C149.767 47.5867 149.393 45.8833 148.647 44.39C147.947 42.8967 146.943 41.7533 145.637 40.96C144.377 40.12 142.907 39.7 141.227 39.7C139.64 39.7 138.217 40.12 136.957 40.96C135.697 41.8 134.717 42.9667 134.017 44.46C133.317 45.9067 132.967 47.5867 132.967 49.5C132.967 51.4133 133.317 53.1167 134.017 54.61C134.717 56.1033 135.673 57.27 136.887 58.11C138.147 58.95 139.57 59.37 141.157 59.37ZM179.838 67.84C175.964 67.84 173.024 66.8833 171.018 64.97C169.058 63.0567 168.078 60.3267 168.078 56.78V21.08H177.318V54.75C177.318 56.2433 177.644 57.3867 178.298 58.18C178.951 58.9267 179.908 59.3 181.168 59.3C181.634 59.3 182.148 59.2067 182.708 59.02C183.268 58.7867 183.851 58.46 184.458 58.04L187.678 64.97C186.558 65.81 185.298 66.4867 183.898 67C182.544 67.56 181.191 67.84 179.838 67.84ZM162.408 39.84V32H186.068V39.84H162.408ZM216.682 67L216.122 60.56V32H225.362V67H216.682ZM192.952 49.92V32H202.192V49.92H192.952ZM202.192 49.92C202.192 52.2533 202.448 54.0967 202.962 55.45C203.522 56.7567 204.292 57.7133 205.272 58.32C206.298 58.88 207.442 59.16 208.702 59.16C211.128 59.2067 212.972 58.4833 214.232 56.99C215.492 55.45 216.122 53.2333 216.122 50.34H219.272C219.272 54.0733 218.712 57.2467 217.592 59.86C216.472 62.4267 214.932 64.41 212.972 65.81C211.012 67.1633 208.702 67.84 206.042 67.84C203.242 67.84 200.862 67.28 198.902 66.16C196.942 65.04 195.448 63.3133 194.422 60.98C193.442 58.6 192.952 55.5433 192.952 51.81V49.92H202.192ZM239.877 48.59C239.877 44.81 240.6 41.6833 242.047 39.21C243.54 36.7367 245.43 34.8933 247.717 33.68C250.05 32.4667 252.477 31.86 254.997 31.86V40.82C252.85 40.82 250.82 41.0767 248.907 41.59C247.04 42.1033 245.524 42.9433 244.357 44.11C243.19 45.2767 242.607 46.77 242.607 48.59H239.877ZM233.367 67V32H242.607V67H233.367ZM275.71 67.84C272.257 67.84 269.2 67.07 266.54 65.53C263.88 63.9433 261.78 61.7733 260.24 59.02C258.747 56.2667 258 53.0933 258 49.5C258 45.9067 258.77 42.7333 260.31 39.98C261.897 37.2267 264.044 35.08 266.75 33.54C269.504 31.9533 272.654 31.16 276.2 31.16C279.28 31.16 282.104 31.9767 284.67 33.61C287.284 35.1967 289.36 37.5533 290.9 40.68C292.487 43.76 293.28 47.5167 293.28 51.95H266.75L267.59 51.11C267.59 52.8367 268.01 54.3533 268.85 55.66C269.737 56.92 270.857 57.9 272.21 58.6C273.61 59.2533 275.104 59.58 276.69 59.58C278.604 59.58 280.167 59.1833 281.38 58.39C282.594 57.55 283.527 56.4767 284.18 55.17L292.44 58.39C291.46 60.35 290.177 62.0533 288.59 63.5C287.05 64.9 285.207 65.9733 283.06 66.72C280.914 67.4667 278.464 67.84 275.71 67.84ZM268.08 45.93L267.24 45.09H284.11L283.34 45.93C283.34 44.25 282.944 42.92 282.15 41.94C281.357 40.9133 280.377 40.1667 279.21 39.7C278.09 39.2333 276.994 39 275.92 39C274.847 39 273.704 39.2333 272.49 39.7C271.277 40.1667 270.227 40.9133 269.34 41.94C268.5 42.92 268.08 44.25 268.08 45.93Z" fill="black"/>
<path d="M322.51 67V26.75H307.81V18H346.73V26.75H332.1V67H322.51ZM363.569 67.84C360.022 67.84 356.849 67.07 354.049 65.53C351.296 63.9433 349.126 61.7733 347.539 59.02C345.999 56.2667 345.229 53.0933 345.229 49.5C345.229 45.9067 345.999 42.7333 347.539 39.98C349.079 37.2267 351.226 35.08 353.979 33.54C356.732 31.9533 359.882 31.16 363.429 31.16C367.022 31.16 370.196 31.9533 372.949 33.54C375.702 35.08 377.849 37.2267 379.389 39.98C380.929 42.7333 381.699 45.9067 381.699 49.5C381.699 53.0933 380.929 56.2667 379.389 59.02C377.849 61.7733 375.702 63.9433 372.949 65.53C370.242 67.07 367.116 67.84 363.569 67.84ZM363.569 59.3C365.296 59.3 366.812 58.88 368.119 58.04C369.426 57.2 370.429 56.0567 371.129 54.61C371.876 53.1167 372.249 51.4133 372.249 49.5C372.249 47.5867 371.876 45.9067 371.129 44.46C370.382 42.9667 369.332 41.8 367.979 40.96C366.672 40.12 365.156 39.7 363.429 39.7C361.749 39.7 360.232 40.12 358.879 40.96C357.572 41.8 356.546 42.9667 355.799 44.46C355.052 45.9067 354.679 47.5867 354.679 49.5C354.679 51.4133 355.052 53.1167 355.799 54.61C356.546 56.0567 357.596 57.2 358.949 58.04C360.302 58.88 361.842 59.3 363.569 59.3ZM405.802 67V18H421.482C426.476 18 430.886 19.05 434.712 21.15C438.586 23.25 441.596 26.1433 443.742 29.83C445.936 33.47 447.032 37.6933 447.032 42.5C447.032 47.26 445.936 51.4833 443.742 55.17C441.596 58.8567 438.586 61.75 434.712 63.85C430.886 65.95 426.476 67 421.482 67H405.802ZM415.392 58.04H421.482C423.722 58.04 425.799 57.6433 427.712 56.85C429.626 56.0567 431.282 54.96 432.682 53.56C434.129 52.16 435.249 50.5267 436.042 48.66C436.836 46.7467 437.232 44.6933 437.232 42.5C437.232 40.3067 436.836 38.2767 436.042 36.41C435.249 34.4967 434.129 32.84 432.682 31.44C431.282 30.04 429.626 28.9433 427.712 28.15C425.799 27.3567 423.722 26.96 421.482 26.96H415.392V58.04ZM469.936 67.84C466.389 67.84 463.216 67.07 460.416 65.53C457.663 63.9433 455.493 61.7733 453.906 59.02C452.366 56.2667 451.596 53.0933 451.596 49.5C451.596 45.9067 452.366 42.7333 453.906 39.98C455.446 37.2267 457.593 35.08 460.346 33.54C463.099 31.9533 466.249 31.16 469.796 31.16C473.389 31.16 476.563 31.9533 479.316 33.54C482.069 35.08 484.216 37.2267 485.756 39.98C487.296 42.7333 488.066 45.9067 488.066 49.5C488.066 53.0933 487.296 56.2667 485.756 59.02C484.216 61.7733 482.069 63.9433 479.316 65.53C476.609 67.07 473.483 67.84 469.936 67.84ZM469.936 59.3C471.663 59.3 473.179 58.88 474.486 58.04C475.793 57.2 476.796 56.0567 477.496 54.61C478.243 53.1167 478.616 51.4133 478.616 49.5C478.616 47.5867 478.243 45.9067 477.496 44.46C476.749 42.9667 475.699 41.8 474.346 40.96C473.039 40.12 471.523 39.7 469.796 39.7C468.116 39.7 466.599 40.12 465.246 40.96C463.939 41.8 462.913 42.9667 462.166 44.46C461.419 45.9067 461.046 47.5867 461.046 49.5C461.046 51.4133 461.419 53.1167 462.166 54.61C462.913 56.0567 463.963 57.2 465.316 58.04C466.669 58.88 468.209 59.3 469.936 59.3Z" fill="#0095B3"/>
</svg>
